<svg fill="none" height="31" viewBox="0 0 273 31" width="273" xmlns="http://www.w3.org/2000/svg" xmlns:xlink="http://www.w3.org/1999/xlink"><filter id="a" color-interpolation-filters="sRGB" filterUnits="userSpaceOnUse" height="29.92" width="272.535" x=".276001" y=".440002"><feFlood flood-opacity="0" result="BackgroundImageFix"/><feColorMatrix in="SourceAlpha" result="hardAlpha" type="matrix" values="0 0 0 0 0 0 0 0 0 0 0 0 0 0 0 0 0 0 127 0"/><feOffset dx="2" dy="4"/><feComposite in2="hardAlpha" operator="out"/><feColorMatrix type="matrix" values="0 0 0 0 0.784314 0 0 0 0 0 0 0 0 0 0 0 0 0 1 0"/><feBlend in2="BackgroundImageFix" mode="normal" result="effect1_dropShadow_2_3"/><feBlend in="SourceGraphic" in2="effect1_dropShadow_2_3" mode="normal" result="shape"/></filter><g filter="url(#a)"><path d="m26.592 24.884c.048.096.072.204.072.324 0 .216-.084.408-.252.576-.144.144-.324.216-.54.216h-8.172c-.336 0-.648-.084-.936-.252-.264-.168-.456-.384-.576-.648l-3.168-7.128h-3.024v7.056c0 .264-.096.492-.288.684s-.42.288-.684.288h-7.776c-.264 0-.492-.096-.684-.288s-.288-.42-.288-.684v-23.256c0-.264.096-.492.288-.684.192-.192002.42-.288002.684-.288002h14.004c2.16 0 4.044.348002 5.652 1.044002 1.632.696 2.88 1.704 3.744 3.024s1.296 2.868 1.296 4.644c0 3.264-1.26 5.628-3.78 7.092zm-12.096-13.572c.528 0 .936-.168 1.224-.504.288-.36.432-.804.432-1.332s-.144-.984-.432-1.368c-.264-.408-.672-.612-1.224-.612h-4.5v3.816zm41.7819 4.284c0 3.672-1.224 6.384-3.672 8.136-2.424 1.752-5.664 2.628-9.72 2.628s-7.308-.876-9.756-2.628c-2.424-1.752-3.636-4.488-3.636-8.208v-4.248c0-2.448.576-4.476 1.728-6.084 1.176-1.632 2.772-2.832 4.788-3.6 2.016-.768001 4.308-1.152001 6.876-1.152001s4.848.384 6.84 1.152001c2.016.768 3.612 1.956 4.788 3.564s1.764 3.624 1.764 6.048zm-17.064.684c0 .984.324 1.74.972 2.268.672.528 1.572.792 2.7.792s2.016-.264 2.664-.792c.672-.552 1.008-1.32 1.008-2.304v-5.688c0-.984-.336-1.74-1.008-2.268-.648-.552-1.536-.828-2.664-.828s-2.028.264-2.7.792c-.648.528-.972 1.284-.972 2.268zm44.554-3.42c.936.288 1.74.924 2.412 1.908.672.96 1.008 2.064 1.008 3.312 0 2.664-.864 4.656-2.592 5.976-1.728 1.296-4.248 1.944-7.56 1.944h-14.832c-.264 0-.492-.096-.684-.288s-.288-.42-.288-.684v-23.256c0-.264.096-.492.288-.684.192-.192002.42-.288002.684-.288002h14.472c3.408 0 5.916.624002 7.524 1.872002 1.632 1.224 2.448 3.084 2.448 5.58v.108c0 1.152-.312 2.136-.936 2.952s-1.272 1.332-1.944 1.548zm-6.876-4.284c0-.432-.132-.804-.396-1.116-.24-.312-.6-.468-1.08-.468h-4.824v3.276h4.824c.48 0 .84-.168 1.08-.504.264-.36.396-.756.396-1.188zm-1.08 11.232c.552 0 .96-.18 1.224-.54.288-.384.432-.804.432-1.26v-.036c0-.456-.156-.852-.468-1.188-.288-.336-.684-.504-1.188-.504h-5.22v3.528zm39.9101-.828c.264 0 .492.096.684.288s.288.42.288.684v5.076c0 .264-.096.492-.288.684s-.42.288-.684.288h-22.7522c-.264 0-.492-.096-.684-.288s-.288-.42-.288-.684v-23.256c0-.264.096-.492.288-.684.192-.192002.42-.288002.684-.288002h22.3922c.264 0 .492.096.684.288002.192.192.288.42.288.684v5.076c0 .264-.096.492-.288.684s-.42.288-.684.288h-14.004v2.268h12.024c.264 0 .492.096.684.288s.288.42.288.684v4.68c0 .264-.096.492-.288.684s-.42.288-.684.288h-12.024v2.268zm33.214 5.904c.048.096.072.204.072.324 0 .216-.084.408-.252.576-.144.144-.324.216-.54.216h-8.172c-.336 0-.648-.084-.936-.252-.264-.168-.456-.384-.576-.648l-3.168-7.128h-3.024v7.056c0 .264-.096.492-.288.684s-.42.288-.684.288h-7.776c-.264 0-.492-.096-.684-.288s-.288-.42-.288-.684v-23.256c0-.264.096-.492.288-.684.192-.192002.42-.288002.684-.288002h14.004c2.16 0 4.044.348002 5.652 1.044002 1.632.696 2.88 1.704 3.744 3.024s1.296 2.868 1.296 4.644c0 3.264-1.26 5.628-3.78 7.092zm-12.096-13.572c.528 0 .936-.168 1.224-.504.288-.36.432-.804.432-1.332s-.144-.984-.432-1.368c-.264-.408-.672-.612-1.224-.612h-4.5v3.816zm40.81-10.512002c.264 0 .492.096.684.288002.192.192.288.42.288.684v5.796c0 .264-.096.492-.288.684s-.42.288-.684.288h-7.74v16.488c0 .264-.096.492-.288.684s-.42.288-.684.288h-7.416c-.264 0-.492-.096-.684-.288s-.288-.42-.288-.684v-16.488h-7.74c-.264 0-.492-.096-.684-.288s-.288-.42-.288-.684v-5.796c0-.264.096-.492.288-.684.192-.192002.42-.288002.684-.288002zm31.558 14.796002c0 3.672-1.224 6.384-3.672 8.136-2.424 1.752-5.664 2.628-9.72 2.628s-7.308-.876-9.756-2.628c-2.424-1.752-3.636-4.488-3.636-8.208v-4.248c0-2.448.576-4.476 1.728-6.084 1.176-1.632 2.772-2.832 4.788-3.6 2.016-.768001 4.308-1.152001 6.876-1.152001s4.848.384 6.84 1.152001c2.016.768 3.612 1.956 4.788 3.564s1.764 3.624 1.764 6.048zm-17.064.684c0 .984.324 1.74.972 2.268.672.528 1.572.792 2.7.792s2.016-.264 2.664-.792c.672-.552 1.008-1.32 1.008-2.304v-5.688c0-.984-.336-1.74-1.008-2.268-.648-.552-1.536-.828-2.664-.828s-2.028.264-2.7.792c-.648.528-.972 1.284-.972 2.268zm69.56-14.508c.36-.648.876-.972002 1.548-.972002h6.588c.264 0 .492.096.684.288002.192.192.288.42.288.684v23.256c0 .264-.096.492-.288.684s-.42.288-.684.288h-6.516c-.264 0-.492-.096-.684-.288s-.288-.42-.288-.684v-11.16l-2.628 5.184c-.072.168-.24.36-.504.576s-.6.324-1.008.324h-2.448c-.408 0-.744-.108-1.008-.324s-.432-.408-.504-.576l-2.628-5.184v11.16c0 .264-.096.492-.288.684s-.42.288-.684.288h-6.516c-.264 0-.492-.096-.684-.288s-.288-.42-.288-.684v-23.256c0-.264.096-.492.288-.684.192-.192002.42-.288002.684-.288002h6.588c.672 0 1.188.324002 1.547.972002l4.717 8.64z" fill="#ffeb00"/></g></svg>